<svg version="1.1" xmlns="http://www.w3.org/2000/svg" xmlns:xlink="http://www.w3.org/1999/xlink" width="47" height="46" viewBox="0,0,256,250.55"><g fill-opacity="0.87843" fill="#000000" fill-rule="nonzero" stroke="none" stroke-width="1" stroke-linecap="butt" stroke-linejoin="miter" stroke-miterlimit="10" stroke-dasharray="" stroke-dashoffset="0" font-family="none" font-weight="none" font-size="none" text-anchor="none" style="mix-blend-mode: normal"><g transform="translate(1.02203,0.10432) scale(5.44681,5.44681)"><path d="M22.2044,1.55551c0.4099,-0.98555 1.806,-0.98555 2.2159,0.00001l5.5671,13.38468c0.1728,0.4155 0.5635,0.6994 1.012,0.7354l14.45,1.1584c1.064,0.0853 1.4954,1.4131 0.6847,2.1075l-11.0093,9.4307c-0.3417,0.2927 -0.491,0.752 -0.3866,1.1897l3.3636,14.1007c0.2476,1.0383 -0.8819,1.8589 -1.7928,1.3025l-12.3711,-7.5562c-0.3841,-0.2346 -0.867,-0.2346 -1.2511,0l-12.3711,7.5562c-0.91092,0.5564 -2.04042,-0.2642 -1.79275,-1.3025l3.36355,-14.1007c0.1044,-0.4377 -0.0449,-0.897 -0.3866,-1.1897l-11.00932,-9.4307c-0.81064,-0.6944 -0.37921,-2.0222 0.68477,-2.1075l14.44995,-1.1584c0.4485,-0.036 0.8392,-0.3199 1.0121,-0.7354z"></path></g></g></svg>